#N canvas 897 70 450 362 10;
#X obj 16 24 inlet;
#X obj 16 48 route note;
#X text 93 2 note midi length;
#X text 62 20 e.g. note 44 110;
#X obj 16 72 unpack f f;
#X obj 16 157 osc~;
#X obj 16 180 expr~ $v1 > 0;
#X obj 16 95 mtof;
#X obj 16 136 line~;
#X obj 73 96 s \$0-length;
#X obj 17 251 *~;
#X obj 17 273 *~ 0.1;
#X obj 181 201 line~;
#X obj 181 60 r \$0-length;
#X msg 181 175 1 50;
#X obj 181 83 bang;
#X obj 221 83 t b f;
#X obj 221 134 del;
#X msg 221 175 0 100;
#X obj 248 107 - 10;
#X msg 16 115 \$1 5;
#X obj 18 300 throw~ dac;
#X connect 0 0 1 0;
#X connect 1 0 4 0;
#X connect 4 0 7 0;
#X connect 4 1 9 0;
#X connect 5 0 6 0;
#X connect 6 0 10 0;
#X connect 7 0 20 0;
#X connect 8 0 5 0;
#X connect 10 0 11 0;
#X connect 11 0 21 0;
#X connect 12 0 10 1;
#X connect 13 0 15 0;
#X connect 13 0 16 0;
#X connect 14 0 12 0;
#X connect 15 0 14 0;
#X connect 16 0 17 0;
#X connect 16 1 19 0;
#X connect 17 0 18 0;
#X connect 18 0 12 0;
#X connect 19 0 17 1;
#X connect 20 0 8 0;
