#N canvas 353 284 467 387 10;
#X obj 14 14 inlet;
#X obj 14 38 route note;
#X obj 14 62 unpack f f;
#X obj 14 147 osc~;
#X obj 14 85 mtof;
#X obj 14 126 line~;
#X msg 14 105 \$1 5;
#X obj 55 195 *~;
#X obj 55 309 *~ 0.2;
#X obj 56 361 dac~;
#X msg 71 113 0 10 \, 1 50 10 \, 0 100 60;
#X obj 71 138 vline~;
#X obj 113 274 delread~ \$0-del 200;
#X obj 113 250 delwrite~ \$0-del 200;
#X obj 127 294 s~ \$0-fb;
#X obj 112 197 r~ \$0-fb;
#X obj 113 228 *~ 0.3;
#X connect 0 0 1 0;
#X connect 1 0 2 0;
#X connect 2 0 4 0;
#X connect 2 1 10 0;
#X connect 3 0 7 0;
#X connect 4 0 6 0;
#X connect 5 0 3 0;
#X connect 6 0 5 0;
#X connect 7 0 8 0;
#X connect 7 0 16 0;
#X connect 8 0 9 0;
#X connect 8 0 9 1;
#X connect 10 0 11 0;
#X connect 11 0 7 1;
#X connect 12 0 8 0;
#X connect 12 0 14 0;
#X connect 15 0 16 0;
#X connect 16 0 13 0;
