#N canvas 545 216 450 300 10;
#X obj 16 24 inlet;
#X obj 16 165 demux . . . .;
#X obj 91 117 f;
#X obj 118 117 + 1;
#X obj 91 139 % 4;
#X obj 91 94 bang;
#X obj 235 231 dac~;
#X obj 235 29 catch~ chord-bus;
#X obj 16 195 chord_voice 1 \$0;
#X obj 263 139 +~ 1000;
#X obj 261 90 osc~ 3;
#X obj 41 216 chord_voice 2 \$0;
#X obj 66 237 chord_voice 3 \$0;
#X obj 91 258 chord_voice 4 \$0;
#X obj 236 56 *~ 0.4;
#X obj 235 175 vcf~ 5;
#X obj 262 115 *~ 200;
#X connect 0 0 5 0;
#X connect 0 0 1 0;
#X connect 1 0 8 0;
#X connect 1 1 11 0;
#X connect 1 2 12 0;
#X connect 1 3 13 0;
#X connect 2 0 3 0;
#X connect 2 0 4 0;
#X connect 3 0 2 1;
#X connect 4 0 1 1;
#X connect 5 0 2 0;
#X connect 7 0 14 0;
#X connect 9 0 15 1;
#X connect 10 0 16 0;
#X connect 14 0 15 0;
#X connect 15 0 6 0;
#X connect 15 0 6 1;
#X connect 16 0 9 0;
