#N canvas 32 148 450 419 10;
#X obj 26 18 inlet;
#X obj 26 58 route note;
#X obj 26 82 unpack f f;
#X obj 26 167 osc~;
#X obj 26 105 mtof;
#X obj 26 146 line~;
#X obj 83 106 s \$0-length;
#X obj 27 261 *~;
#X obj 191 211 line~;
#X obj 191 70 r \$0-length;
#X msg 191 185 1 50;
#X obj 191 93 bang;
#X obj 231 93 t b f;
#X obj 231 144 del;
#X msg 231 185 0 100;
#X obj 258 117 - 10;
#X msg 26 125 \$1 5;
#X obj 76 36 print voice-\$1;
#X obj 26 190 expr~ $v1 > 0;
#X obj 28 310 throw~ \$2-chord-bus;
#X connect 0 0 1 0;
#X connect 0 0 17 0;
#X connect 1 0 2 0;
#X connect 2 0 4 0;
#X connect 2 1 6 0;
#X connect 3 0 18 0;
#X connect 4 0 16 0;
#X connect 5 0 3 0;
#X connect 7 0 19 0;
#X connect 8 0 7 1;
#X connect 9 0 11 0;
#X connect 9 0 12 0;
#X connect 10 0 8 0;
#X connect 11 0 10 0;
#X connect 12 0 13 0;
#X connect 12 1 15 0;
#X connect 13 0 14 0;
#X connect 14 0 8 0;
#X connect 15 0 13 1;
#X connect 16 0 5 0;
#X connect 18 0 7 0;
