#N canvas 128 411 582 300 10;
#X obj 13 25 inlet;
#X obj 293 18 table \$0-sample;
#X obj 292 148 soundfiler;
#X obj 292 65 symbol \$1;
#X msg 292 121 read -resize \$1 \$2-sample;
#X obj 292 95 pack s \$0;
#X obj 292 40 r sample_load;
#N canvas 792 414 450 300 get_sample_name 0;
#X obj 54 125 splitfilename;
#X obj 54 74 symbol \$1;
#X msg 184 99 separator /;
#X obj 54 179 splitfilename;
#X msg 184 151 separator .;
#X obj 54 151 symbol;
#X obj 54 210 s \$0-sample_name;
#X obj 54 36 t b b;
#X obj 149 59 bang;
#X obj 54 11 r sample_load;
#X obj 145 14 bng 15 250 50 0 empty empty empty 17 7 0 10 -262144 -1
-1;
#X obj 78 244 print;
#X connect 0 1 5 0;
#X connect 1 0 0 0;
#X connect 2 0 0 0;
#X connect 3 0 6 0;
#X connect 3 0 11 0;
#X connect 4 0 3 0;
#X connect 5 0 3 0;
#X connect 7 0 1 0;
#X connect 7 1 8 0;
#X connect 8 0 2 0;
#X connect 8 0 4 0;
#X connect 9 0 7 0;
#X connect 10 0 7 0;
#X restore 293 174 pd get_sample_name;
#X obj 13 99 tabplay~ \$0-sample;
#X obj 12 126 throw~ sample_bus;
#X obj 149 25 r \$0-sample_name;
#X obj 13 75 sel samp;
#X msg 60 19 symbol cymbal;
#X obj 13 48 symbol;
#X connect 0 0 13 0;
#X connect 3 0 5 0;
#X connect 4 0 2 0;
#X connect 5 0 4 0;
#X connect 6 0 3 0;
#X connect 8 0 9 0;
#X connect 10 0 11 1;
#X connect 11 0 8 0;
#X connect 12 0 11 0;
#X connect 13 0 11 0;
