#N canvas 95 177 648 542 10;
#X text 12 8 Scaled Up receiver \, mk1;
#X obj 18 115 netreceive 9901 1;
#X text 12 22 Diagnostic only;
#X obj 18 136 print 9901;
#X obj 17 157 netreceive 9902 1;
#X obj 17 178 print 9902;
#X obj 17 200 netreceive 9903 1;
#X obj 17 221 print 9903;
#X obj 17 242 netreceive 9904 1;
#X obj 17 263 print 9904;
#X obj 17 284 netreceive 9905 1;
#X obj 17 305 print 9905;
#X obj 17 326 netreceive 9906 1;
#X obj 17 347 print 9906;
#X obj 16 368 netreceive 9907 1;
#X obj 16 389 print 9907;
#X obj 16 411 netreceive 9908 1;
#X obj 16 432 print 9908;
#X obj 16 453 netreceive 9909 1;
#X obj 16 474 print 9909;
#X text 20 56 Bass;
#X text 133 59 Treble;
#X text 241 57 Chord;
#X text 352 57 Sample;
#X obj 128 115 netreceive 9911 1;
#X obj 127 157 netreceive 9912 1;
#X obj 127 178 print 9912;
#X obj 127 200 netreceive 9913 1;
#X obj 127 221 print 9913;
#X obj 127 242 netreceive 9914 1;
#X obj 127 263 print 9914;
#X obj 127 284 netreceive 9915 1;
#X obj 127 326 netreceive 9916 1;
#X obj 126 368 netreceive 9917 1;
#X obj 126 411 netreceive 9918 1;
#X obj 126 453 netreceive 9919 1;
#X obj 127 305 print 9915;
#X obj 127 347 print 9916;
#X obj 126 389 print 9917;
#X obj 126 432 print 9918;
#X obj 126 474 print 9919;
#X obj 128 136 print 9911;
#X obj 239 115 netreceive 9921 1;
#X obj 239 136 print 9921;
#X obj 238 157 netreceive 9922 1;
#X obj 238 178 print 9922;
#X obj 238 200 netreceive 9923 1;
#X obj 238 221 print 9923;
#X obj 238 242 netreceive 9924 1;
#X obj 238 263 print 9924;
#X obj 238 284 netreceive 9925 1;
#X obj 238 305 print 9925;
#X obj 238 326 netreceive 9926 1;
#X obj 238 347 print 9926;
#X obj 237 368 netreceive 9927 1;
#X obj 237 389 print 9927;
#X obj 237 411 netreceive 9928 1;
#X obj 237 432 print 9928;
#X obj 237 454 netreceive 9929 1;
#X obj 237 474 print 9929;
#X obj 350 115 netreceive 9931 1;
#X obj 350 136 print 9931;
#X obj 349 157 netreceive 9932 1;
#X obj 349 178 print 9932;
#X obj 349 200 netreceive 9933 1;
#X obj 349 221 print 9933;
#X obj 349 242 netreceive 9934 1;
#X obj 349 263 print 9934;
#X obj 349 284 netreceive 9935 1;
#X obj 349 305 print 9935;
#X obj 349 326 netreceive 9936 1;
#X obj 349 347 print 9936;
#X obj 348 368 netreceive 9937 1;
#X obj 348 389 print 9937;
#X obj 348 411 netreceive 9938 1;
#X obj 348 432 print 9938;
#X obj 348 454 netreceive 9939 1;
#X obj 348 474 print 9939;
#X obj 18 94 print 9901;
#X obj 128 94 print 9911;
#X obj 239 94 print 9921;
#X obj 350 94 print 9931;
#X obj 18 73 netreceive 9900 1;
#X obj 128 73 netreceive 9910 1;
#X obj 239 73 netreceive 9920 1;
#X obj 350 73 netreceive 9930 1;
#X connect 1 0 3 0;
#X connect 4 0 5 0;
#X connect 6 0 7 0;
#X connect 8 0 9 0;
#X connect 10 0 11 0;
#X connect 12 0 13 0;
#X connect 14 0 15 0;
#X connect 16 0 17 0;
#X connect 18 0 19 0;
#X connect 24 0 41 0;
#X connect 25 0 26 0;
#X connect 27 0 28 0;
#X connect 29 0 30 0;
#X connect 31 0 36 0;
#X connect 32 0 37 0;
#X connect 33 0 38 0;
#X connect 34 0 39 0;
#X connect 35 0 40 0;
#X connect 42 0 43 0;
#X connect 44 0 45 0;
#X connect 46 0 47 0;
#X connect 48 0 49 0;
#X connect 50 0 51 0;
#X connect 52 0 53 0;
#X connect 54 0 55 0;
#X connect 56 0 57 0;
#X connect 58 0 59 0;
#X connect 60 0 61 0;
#X connect 62 0 63 0;
#X connect 64 0 65 0;
#X connect 66 0 67 0;
#X connect 68 0 69 0;
#X connect 70 0 71 0;
#X connect 72 0 73 0;
#X connect 74 0 75 0;
#X connect 76 0 77 0;
#X connect 82 0 78 0;
#X connect 83 0 79 0;
#X connect 84 0 80 0;
#X connect 85 0 81 0;
