#N canvas 3 57 686 233 10;
#X obj 28 62 netreceive 9901 1;
#X text 34 8 Scaled Up receiver MK2;
#X text 34 22 Simple Sounds;
#X obj 38 89 print bass;
#X obj 171 90 print chord;
#X obj 28 115 simple/bass;
#X obj 160 114 simple/chord;
#X obj 295 62 netreceive 9910 1;
#X obj 306 90 print drum;
#X obj 295 114 simple/samples;
#X obj 160 62 netreceive 9915 1;
#X obj 38 165 print bass;
#X obj 28 191 simple/bass;
#X obj 28 138 netreceive 9902 1;
#X connect 0 0 3 0;
#X connect 0 0 5 0;
#X connect 7 0 8 0;
#X connect 7 0 9 0;
#X connect 10 0 4 0;
#X connect 10 0 6 0;
#X connect 13 0 11 0;
#X connect 13 0 12 0;
