#N canvas 510 257 686 233 10;
#X text 34 8 Scaled Up receiver MK2;
#X text 34 22 Simple Sounds;
#X obj 28 106 simple/bass;
#X obj 372 90 print drum;
#X obj 361 114 simple/samples;
#X obj 33 84 print bass1;
#X obj 33 149 print bass2;
#X obj 250 62 netreceive 9920 1;
#X obj 361 62 netreceive 9930 1;
#X obj 28 62 netreceive 9900 1;
#X obj 28 127 netreceive 9901 1;
#X obj 250 127 netreceive 9921 1;
#X obj 255 84 print chord1;
#X obj 255 148 print chord2;
#X obj 145 149 print treble2;
#X obj 145 84 print treble1;
#X obj 140 62 netreceive 9910 1;
#X obj 140 127 netreceive 9911 1;
#X obj 140 106 simple/blip;
#X obj 250 104 simple/chord;
#X obj 187 7 shared/init;
#X obj 188 33 shared/audio-output;
#X obj 250 168 simple/chord;
#X obj 140 172 simple/blip;
#X obj 28 171 simple/bass;
#X connect 7 0 12 0;
#X connect 7 0 19 0;
#X connect 8 0 3 0;
#X connect 8 0 4 0;
#X connect 9 0 2 0;
#X connect 9 0 5 0;
#X connect 10 0 6 0;
#X connect 10 0 24 0;
#X connect 11 0 13 0;
#X connect 11 0 22 0;
#X connect 16 0 15 0;
#X connect 16 0 18 0;
#X connect 17 0 14 0;
#X connect 17 0 23 0;
