#N canvas 3 58 686 233 10;
#X text 34 8 Scaled Up receiver MK2;
#X text 34 22 Simple Sounds;
#X obj 171 90 print chord;
#X obj 28 106 simple/bass;
#X obj 160 114 simple/chord;
#X obj 306 90 print drum;
#X obj 295 114 simple/samples;
#X obj 28 171 simple/bass;
#X obj 33 84 print bass1;
#X obj 33 149 print bass2;
#X obj 160 62 netreceive 9920 1;
#X obj 295 62 netreceive 9930 1;
#X obj 28 62 netreceive 9900 1;
#X obj 28 127 netreceive 9901 1;
#X connect 10 0 2 0;
#X connect 10 0 4 0;
#X connect 11 0 5 0;
#X connect 11 0 6 0;
#X connect 12 0 3 0;
#X connect 12 0 8 0;
#X connect 13 0 7 0;
#X connect 13 0 9 0;
