#N canvas 52 142 721 300 10;
#X obj 66 116 random 4;
#X obj 66 139 sel 0;
#X obj 66 162 tgl 15 0 empty empty empty 17 7 0 10 -262144 -1 -1 0
1;
#X obj 10 97 osc~ 440;
#X obj 11 194 *~;
#X obj 11 219 *~ 0.2;
#X obj 11 251 dac~;
#X obj 66 96 r tick;
#X obj 181 115 random 4;
#X obj 181 138 sel 0;
#X obj 181 161 tgl 15 0 empty empty empty 17 7 0 10 -262144 -1 -1 0
1;
#X obj 126 193 *~;
#X obj 126 218 *~ 0.2;
#X obj 126 250 dac~;
#X obj 181 95 r tick;
#X obj 125 95 osc~ 660;
#X obj 299 110 random 4;
#X obj 299 133 sel 0;
#X obj 299 156 tgl 15 0 empty empty empty 17 7 0 10 -262144 -1 -1 1
1;
#X obj 244 188 *~;
#X obj 244 213 *~ 0.2;
#X obj 244 245 dac~;
#X obj 299 90 r tick;
#X obj 243 90 osc~ 880;
#X obj 27 66 s tick;
#X obj 27 44 metro 250;
#X obj 27 22 loadbang;
#X obj 87 24 bng 15 250 50 0 empty empty empty 17 7 0 10 -262144 -1
-1;
#X obj 416 108 random 4;
#X obj 416 131 sel 0;
#X obj 416 154 tgl 15 0 empty empty empty 17 7 0 10 -262144 -1 -1 0
1;
#X obj 361 186 *~;
#X obj 361 243 dac~;
#X obj 416 88 r tick;
#X obj 360 88 noise~;
#X obj 361 121 hip~ 5000;
#X obj 512 78 s pd;
#X obj 361 211 *~ 0.1;
#X obj 512 36 del 1000;
#X obj 510 13 loadbang;
#X msg 512 55 dsp 1;
#X connect 0 0 1 0;
#X connect 1 0 2 0;
#X connect 2 0 4 1;
#X connect 3 0 4 0;
#X connect 4 0 5 0;
#X connect 5 0 6 0;
#X connect 5 0 6 1;
#X connect 7 0 0 0;
#X connect 8 0 9 0;
#X connect 9 0 10 0;
#X connect 10 0 11 1;
#X connect 11 0 12 0;
#X connect 12 0 13 0;
#X connect 12 0 13 1;
#X connect 14 0 8 0;
#X connect 15 0 11 0;
#X connect 16 0 17 0;
#X connect 17 0 18 0;
#X connect 18 0 19 1;
#X connect 19 0 20 0;
#X connect 20 0 21 0;
#X connect 20 0 21 1;
#X connect 22 0 16 0;
#X connect 23 0 19 0;
#X connect 25 0 24 0;
#X connect 26 0 25 0;
#X connect 27 0 25 0;
#X connect 28 0 29 0;
#X connect 29 0 30 0;
#X connect 30 0 31 1;
#X connect 31 0 37 0;
#X connect 33 0 28 0;
#X connect 34 0 35 0;
#X connect 35 0 31 0;
#X connect 37 0 32 0;
#X connect 37 0 32 1;
#X connect 38 0 40 0;
#X connect 39 0 38 0;
#X connect 40 0 36 0;
