#N canvas 793 122 450 300 10;
#X obj 301 254 mp3cast~;
#X obj 302 198 osc~ 440;
#X msg 92 175 mountpoint test.mp3;
#X msg 92 127 icecast2;
#X msg 93 195 connect 192.168.0.9 8000;
#X msg 92 149 passwd scalemeupscotty;
#X msg 105 234 disconnect;
#X obj 302 156 *~ 220;
#X obj 302 134 osc~ 0.5;
#X obj 302 177 +~ 440;
#X obj 297 4 loadbang;
#X msg 297 49 dsp 1;
#X obj 301 73 s pd;
#X obj 298 28 del 100;
#N canvas 821 440 450 300 settings 0;
#X obj 42 227 outlet;
#X obj 42 76 l2s;
#X msg 42 103 name \$1;
#X msg 113 66 An experiment in collaborative musicianship;
#X obj 113 87 l2s;
#X msg 113 107 description \$1;
#X msg 42 55 Scaled Up;
#X obj 42 26 r stream-init;
#X obj 113 46 r stream-init;
#X obj 130 126 r stream-init;
#X msg 130 148 genre music;
#X obj 131 170 r stream-init;
#X msg 131 192 url http://scaled-up.andrewfaraday.com;
#X connect 1 0 2 0;
#X connect 2 0 0 0;
#X connect 3 0 4 0;
#X connect 4 0 5 0;
#X connect 5 0 0 0;
#X connect 6 0 1 0;
#X connect 7 0 6 0;
#X connect 8 0 3 0;
#X connect 9 0 10 0;
#X connect 10 0 0 0;
#X connect 11 0 12 0;
#X connect 12 0 0 0;
#X restore 218 172 pd settings;
#X obj 89 106 s init-stream;
#X obj 27 26 loadbang;
#X obj 27 47 del 1000;
#X obj 27 70 t b b b b b;
#X connect 1 0 0 1;
#X connect 1 0 0 0;
#X connect 2 0 0 0;
#X connect 3 0 0 0;
#X connect 4 0 0 0;
#X connect 5 0 0 0;
#X connect 6 0 0 0;
#X connect 7 0 9 0;
#X connect 8 0 7 0;
#X connect 9 0 1 0;
#X connect 10 0 13 0;
#X connect 11 0 12 0;
#X connect 13 0 11 0;
#X connect 16 0 17 0;
#X connect 17 0 18 0;
#X connect 18 0 4 0;
#X connect 18 1 2 0;
#X connect 18 2 5 0;
#X connect 18 3 3 0;
#X connect 18 4 15 0;
