#N canvas 720 66 450 300 10;
#X obj 301 254 mp3cast~;
#X obj 302 203 osc~ 440;
#X msg 92 163 mountpoint test.mp3;
#X msg 92 115 icecast2;
#X msg 93 183 connect 192.168.0.9 8000;
#X obj 12 36 loadbang;
#X obj 13 80 t b b b b;
#X obj 12 57 del 1000;
#X msg 92 137 passwd scalemeupscotty;
#X msg 105 234 disconnect;
#X obj 299 156 *~ 220;
#X obj 301 131 osc~ 0.5;
#X obj 297 177 +~ 440;
#X obj 297 4 loadbang;
#X msg 297 49 dsp 1;
#X obj 301 73 s pd;
#X obj 298 28 del 100;
#X connect 1 0 0 1;
#X connect 2 0 0 0;
#X connect 3 0 0 0;
#X connect 4 0 0 0;
#X connect 5 0 7 0;
#X connect 6 0 4 0;
#X connect 6 1 2 0;
#X connect 6 2 8 0;
#X connect 6 3 3 0;
#X connect 7 0 6 0;
#X connect 8 0 0 0;
#X connect 9 0 0 0;
#X connect 10 0 12 0;
#X connect 11 0 10 0;
#X connect 12 0 1 0;
#X connect 13 0 16 0;
#X connect 14 0 15 0;
#X connect 16 0 14 0;
