#N canvas 720 63 450 300 10;
#X obj 301 215 mp3cast~;
#X obj 302 164 osc~ 440;
#X msg 92 142 mountpoint test.mp3;
#X msg 92 76 icecast2;
#X msg 93 120 connect 192.168.0.9 8000;
#X obj 12 -3 loadbang;
#X obj 13 41 t b b b b;
#X obj 12 18 del 1000;
#X msg 92 98 passwd scalemeupscotty;
#X connect 1 0 0 0;
#X connect 1 0 0 1;
#X connect 2 0 0 0;
#X connect 3 0 0 0;
#X connect 4 0 0 0;
#X connect 5 0 7 0;
#X connect 6 0 2 0;
#X connect 6 1 4 0;
#X connect 6 2 8 0;
#X connect 6 3 3 0;
#X connect 7 0 6 0;
#X connect 8 0 0 0;
