#N canvas 15 386 450 300 10;
#X obj 139 39 r stream-config;
#X obj 87 18 catch~ dac;
#X obj 87 105 dac~;
#X obj 139 104 mp3cast~;
#X connect 0 0 3 0;
#X connect 1 0 2 0;
#X connect 1 0 2 1;
#X connect 1 0 3 0;
#X connect 1 0 3 1;
