#N canvas 3 56 521 300 10;
#X obj 8 70 s pd;
#X msg 8 50 dsp 1;
#X obj 8 10 loadbang;
#X obj 8 30 del 100;
#X obj 160 33 loadbang;
#X obj 160 54 del 1000;
#X msg 223 160 mountpoint test.mp3;
#X msg 223 117 icecast2;
#X msg 223 180 connect 192.168.0.9 8000;
#X msg 223 139 passwd scalemeupscotty;
#X obj 160 77 t b b b b;
#X obj 223 206 s stream-config;
#X connect 1 0 0 0;
#X connect 2 0 3 0;
#X connect 3 0 1 0;
#X connect 4 0 5 0;
#X connect 5 0 10 0;
#X connect 6 0 11 0;
#X connect 7 0 11 0;
#X connect 8 0 11 0;
#X connect 9 0 11 0;
#X connect 10 0 8 0;
#X connect 10 1 6 0;
#X connect 10 2 9 0;
#X connect 10 3 7 0;
